inDegrees=no
num_controls=7
num_derivatives=13
num_iterations=94
num_multipliers=7
num_parameters=0
num_slacks=7
num_states=26
objective=0.516942
objective_accelerations=0.040139
objective_balance=0.002216
objective_effort=0.044502
objective_height=0.418457
objective_ligament=0.011628
solver_duration=1251.963223
status=Solve_Succeeded
success=true
DataType=double
version=3
OpenSimVersion=4.5
endheader
time	/jointset/ground_pelvis/pelvis_tilt/value	/jointset/ground_pelvis/pelvis_tx/value	/jointset/ground_pelvis/pelvis_ty/value	/jointset/hip_l/hip_flexion_l/value	/jointset/hip_l/hip_adduction_l/value	/jointset/hip_l/hip_rotation_l/value	/jointset/back/lumbar_extension/value	/jointset/patellofemoral_l/patellar_flexion_l/value	/jointset/knee_l/knee_flexion_l/value	/jointset/knee_l/knee_adduction_l/value	/jointset/knee_l/knee_rotation_l/value	/jointset/ankle_l/ankle_angle_l/value	/jointset/subtalar_l/subtalar_angle_l/value	/jointset/ground_pelvis/pelvis_tilt/speed	/jointset/ground_pelvis/pelvis_tx/speed	/jointset/ground_pelvis/pelvis_ty/speed	/jointset/hip_l/hip_flexion_l/speed	/jointset/hip_l/hip_adduction_l/speed	/jointset/hip_l/hip_rotation_l/speed	/jointset/back/lumbar_extension/speed	/jointset/patellofemoral_l/patellar_flexion_l/speed	/jointset/knee_l/knee_flexion_l/speed	/jointset/knee_l/knee_adduction_l/speed	/jointset/knee_l/knee_rotation_l/speed	/jointset/ankle_l/ankle_angle_l/speed	/jointset/subtalar_l/subtalar_angle_l/speed	/forceset/tau_hip_flexion_l	/forceset/tau_hip_adduction_l	/forceset/tau_hip_rotation_l	/forceset/tau_knee_flexion_l	/forceset/tau_ankle_angle_l	/forceset/tau_subtalar_angle_l	/forceset/tau_lumbar_extension	lambda_cid13_p0	lambda_cid13_p1	lambda_cid13_p2	lambda_cid13_p3	lambda_cid13_p4	lambda_cid13_p5	lambda_cid14_p0	/jointset/ground_pelvis/pelvis_tilt/accel	/jointset/ground_pelvis/pelvis_tx/accel	/jointset/ground_pelvis/pelvis_ty/accel	/jointset/hip_l/hip_flexion_l/accel	/jointset/hip_l/hip_adduction_l/accel	/jointset/hip_l/hip_rotation_l/accel	/jointset/back/lumbar_extension/accel	/jointset/patellofemoral_l/patellar_flexion_l/accel	/jointset/knee_l/knee_flexion_l/accel	/jointset/knee_l/knee_adduction_l/accel	/jointset/knee_l/knee_rotation_l/accel	/jointset/ankle_l/ankle_angle_l/accel	/jointset/subtalar_l/subtalar_angle_l/accel	gamma_cid13_p0	gamma_cid13_p1	gamma_cid13_p2	gamma_cid13_p3	gamma_cid13_p4	gamma_cid13_p5	gamma_cid14_p0
1.5	-0.01991341898732014	-0.02708330363288699	0.8675110234275694	0.6411506246310132	-0.3129784198424758	-0.1767449507954031	-0.7856828790309356	0.6409977388999373	0.640997738899961	-0.1091084320473851	-0.1743696651534483	0.06805966176840789	0.00444334909819329	0.4033617287669063	0.2822364106261385	0.3483098400312393	-1.892867610209097	0.09376967770676035	-0.5389978823956489	0.8423043419298722	-1.64358989464478	-1.643589894644744	-0.1251125450832531	-0.0007654306171533575	-0.2427743260591587	0.02375850079769114	-0.2094809512006788	0.04100715143783153	-0.0039446381742946	-0.188606854896269	0.1048133987198844	0.0231743189591182	0.2838314587151445	-9.801408692896546	-10.18963933271848	3.273279643082114	-8.990928176180423	-673.7207785094407	-59.03749710467505	-19.87595698414179	0.002792300419338476	0.6549640910426398	-0.4966522259037227	-0.6894144433282124	0.3256100840311091	-0.2146334469523156	1.822836138820656	-0.6672539352901711	-0.6672539352901784	-0.3027211842199259	0.04512217370145225	0.04417074755846091	0.3504556081210471	1.445619800173551e-09	1.026634063937239e-06	1.504176661360698e-07	1.592297027395679e-07	8.359091308317089e-08	1.41097162065693e-07	1.010678474659665e-07
1.51	-0.01588011438038132	-0.02422847051643784	0.8709686129927453	0.6221895584826672	-0.312024887106592	-0.1821469093102252	-0.7771698813994092	0.6245305869550851	0.6245305869550776	-0.1103745092551135	-0.1743769305093585	0.06563445937029468	0.004698082260329915	0.4032447459711234	0.2886988040490432	0.3431413542921026	-1.899105443099944	0.09693028038771553	-0.5413544279391964	0.8601834771302262	-1.649617877880193	-1.649617877880136	-0.1280879526226879	-0.0006996005643329069	-0.2422159866478241	0.02719563501291267	-0.2019133149543064	0.03994589657362086	-0.003907379043251046	-0.1859277804620656	0.1041914416190789	0.02248612606776912	0.2767961145216206	-9.800008409756687	-9.961757728925178	3.317768821366809	-8.738105410726199	-669.8845833354942	-59.17419722323182	-20.35411549584945	-0.02712017270401441	0.6371982714203481	-0.5369379413972664	-0.5549528528090619	0.3101259595138254	-0.2401772353409298	1.753696124078614	-0.5371970257555209	-0.5371970257523097	-0.292515458556238	-0.01446750387268587	0.06921795120624763	0.3412801482319703	-6.537634732378704e-09	1.038908327380551e-06	1.787665571257569e-07	1.617044146446119e-07	8.324481774469787e-08	1.403473181988715e-07	9.698167014726586e-08
1.52	-0.0118496149220102	-0.02130994920505788	0.8743725194618343	0.6031733169772548	-0.311039980224015	-0.1875712357059526	-0.7684814436331907	0.6080098298762354	0.6080098298762364	-0.1116698535221552	-0.1743838937497782	0.06321635084895115	0.004987374328620669	0.4028006990502401	0.2949740496122997	0.3375732208138436	-1.90390268162463	0.1000445070441183	-0.5434714585741496	0.8773923688679904	-1.65431092143915	-1.654310921439072	-0.1309659569521653	-0.0007050075093106336	-0.2413555507050774	0.03067028202850333	-0.1943456787079516	0.03888464170938445	-0.003870119911770313	-0.1832487060278969	0.1035694845182547	0.021797933176368	0.2697607703280924	-9.804460184665668	-9.73249858658497	3.361635168867797	-8.489253760863461	-666.1471628386955	-59.32801690791175	-20.80876405437118	-0.06262052460056146	0.6175345191129255	-0.5765817737281987	-0.4012955700961098	0.3163348791206216	-0.1667304652334309	1.688787446302862	-0.4002659999990118	-0.4002659999990111	-0.2832405422284069	0.03087477414184222	0.1045900538408514	0.3579581681948796	-3.304362376678201e-09	1.040121342068003e-06	1.52130467444785e-07	1.567482986353237e-07	9.40415410170793e-08	1.485256589133468e-07	9.923117956245961e-08
1.53	-0.007825175189704835	-0.01832966195093857	0.8777188015812795	0.5841162769430284	-0.3100242768714647	-0.1930151258859402	-0.7596245141425919	0.5914488287342455	0.5914488287343052	-0.1129939009807051	-0.1743910064422763	0.06080834077776815	0.005311470138944134	0.402031645107511	0.3010462631397286	0.3316212418386361	-1.907257164601137	0.1030836375627951	-0.5452482023864883	0.8938592074427584	-1.657656626615142	-1.657656626615106	-0.1338386082651744	-0.0007175993646450758	-0.2401936443863226	0.03415102323031771	-0.186487318029511	0.03761358572546744	-0.003895235776595395	-0.1809217319768975	0.1033746797300576	0.02101150273290206	0.262482193727534	-9.679359852991775	-9.477864501099805	3.395294820582813	-8.288445987567505	-662.4506239183409	-59.46762459445667	-21.23705355540042	-0.09239527998705603	0.5965214619831717	-0.6137743857627979	-0.2653084185825829	0.2956752452448101	-0.1742938043604645	1.605483791931689	-0.2668433290457429	-0.2668433290521887	-0.2883578741788609	-0.01735626486690797	0.1299401321042278	0.3432892827216125	1.184646979779072e-08	1.029581779952353e-06	6.707283580123834e-08	1.438969279670578e-07	1.166775090634935e-07	1.661901957454497e-07	1.082123561324161e-07
1.54	-0.003810095486992604	-0.01528976122305939	0.8810037102257037	0.5650331353276152	-0.3089785875923305	-0.1984750129970722	-0.7506069459204696	0.5748613464299765	0.5748613464300717	-0.1143464910420565	-0.1743982510732217	0.0584135396120154	0.005670404798595184	0.4009286931296278	0.3068967443642727	0.3252985258096234	-1.909122997863828	0.106041692361613	-0.5466708448038814	0.909520115172218	-1.659607153896995	-1.659607153897002	-0.1366744775118499	-0.0007313951998149631	-0.2387137696191099	0.03763805189400833	-0.1786289573510464	0.03634252974156321	-0.003920351641491956	-0.1785947579258835	0.1031798749418666	0.0202250722894558	0.2552036171269895	-9.560007324022465	-9.221365126096142	3.427676126660354	-8.091441306878789	-658.8511211753153	-59.62772824825633	-21.63618059333814	-0.129400131631239	0.5731880585358958	-0.6507291844892524	-0.1035656273327844	0.3001197351488557	-0.0959101862442838	1.527601277241339	-0.12123042117144	-0.1212304211714396	-0.2758841289616453	0.03063397817477123	0.1681837435323862	0.3592156605701235	1.705361616240139e-08	1.033901119533759e-06	3.128088449128354e-08	1.377327017349813e-07	1.307633009171551e-07	1.764523738650434e-07	1.119796279076687e-07
1.55	0.0001921875338588084	-0.01219259596981997	0.8842235871406245	0.5459389858955577	-0.3079036728511048	-0.2039473920345005	-0.7414370850259656	0.5582613006894731	0.5582613006894956	-0.115727132082225	-0.174405600843181	0.05603499661234643	0.006064255470561815	0.3994634384557474	0.3124854648985	0.3186194657713475	-1.909435374376328	0.1089284529731974	-0.547738302095835	0.9242869726508792	-1.66016803234997	-1.660168032349967	-0.1394444748216519	-0.0007300671605650377	-0.2369544791102678	0.04112983515381579	-0.1704824785728782	0.03488964314715945	-0.004000128313145023	-0.1764661655636436	0.1030128854521297	0.01940567693765636	0.2476283488964994	-9.440633896211144	-8.947346745849378	3.453602277903682	-7.76337284616389	-655.2837271599119	-59.80632238501064	-22.00339286211061	-0.1647695279475365	0.5441158686983291	-0.6850756539291811	0.04564224629739255	0.2808719905653229	-0.1020746357725958	1.426464321764527	0.01155602165648593	0.01155602165802904	-0.2759788625945686	-0.01385795480014918	0.185880633162918	0.3436466268139592	1.080390713739339e-08	1.055340498026989e-06	5.225156487002919e-08	1.392732288750357e-07	1.349978028096024e-07	1.781857473810944e-07	1.097395745933715e-07
1.56	0.004177881729446929	-0.009041063147671339	0.8873749572070764	0.5268498558802873	-0.3068003069504852	-0.2094284278718654	-0.7321245082889554	0.5416626606802482	0.5416626606801855	-0.1171351573616115	-0.174412685367072	0.05367526230348685	0.006492921368752166	0.3976109280745839	0.3177702581461155	0.3115971561158058	-1.908119114508589	0.1117319242408612	-0.5484022047918569	0.9380632836729533	-1.659326007642259	-1.659326007642245	-0.1421513253556558	-0.0006783459853273011	-0.234952031457313	0.0446010971387397	-0.1623359997946828	0.03343675655276975	-0.004079904984798301	-0.1743375732013901	0.1028458959623994	0.01858628158587457	0.2400530806660247	-9.327046154989885	-8.670643373171799	3.477190729622894	-7.43604477662154	-651.8127170353271	-60.00052611922067	-22.33605515872003	-0.206851273087673	0.5124026012134476	-0.7193791079424295	0.2221616487150943	0.2834618663647693	-0.0151992670579288	1.329491985924073	0.1593502109658725	0.1593502109658728	-0.2632547738020033	0.04071260537234759	0.2168151723548478	0.355111405593407	2.679558922435917e-08	1.04611228524448e-06	-2.61469777707824e-08	1.255434640188156e-07	1.675117226356438e-07	2.019824237025104e-07	1.178622670504099e-07
1.57	0.00814330635613106	-0.005838243553431104	0.8904544637979459	0.5077817934404275	-0.3056695620873729	-0.2149137090626438	-0.7226793688580158	0.5250795134980073	0.525079513498007	-0.1185704912202138	-0.1744188485700269	0.0513367735438969	0.006955942694780813	0.3954180296483727	0.3227377797423817	0.3042519706160395	-1.905212189047496	0.1143996291189278	-0.5486062048640514	0.9507854074808517	-1.657035957372743	-1.657035957372695	-0.1448862088615933	-0.0005711964285999503	-0.2326900086802602	0.04800219618910354	-0.1542414700289146	0.03196325149990874	-0.004205386497292836	-0.1722296075280231	0.1027143840453983	0.01769167383629995	0.232535274362181	-9.216436638933581	-8.357488400777722	3.491237666285979	-7.098188996518616	-648.5234313204739	-60.13075661024254	-22.63164105390418	-0.2339056587398033	0.480559560788052	-0.7498620977902173	0.3671370855774393	0.2557136027458184	-0.01569065990212233	1.216693323372833	0.3039229352636493	0.3039229352687647	-0.2740715209203481	-0.006907580823848753	0.2392781154842628	0.3323499365604513	7.058901020129189e-08	9.98549583367297e-07	-2.287570491860393e-07	9.272583416725239e-08	2.353749148786775e-07	2.533582285306325e-07	1.389383917216176e-07
1.58	0.01208512269229272	-0.00258742221883669	0.8934589637684586	0.4887512360733429	-0.3045126824146414	-0.2203995683106594	-0.7131123840399647	0.5085272849185327	0.5085272849185771	-0.1200322671902599	-0.1744244650197467	0.04902258146909871	0.007452923167673663	0.3928892699680444	0.3273706062169511	0.2965958320444272	-1.900618099955562	0.1169588861657199	-0.5485178162403227	0.9624323610947245	-1.653142287090457	-1.653142287090375	-0.1474397476447588	-0.0005689953377460239	-0.2300926944990573	0.05139292651157098	-0.1461469402631161	0.03048974644706441	-0.004330868009814697	-0.1701216418546417	0.102582872128405	0.01679706608675042	0.2250174680583549	-9.110181642561876	-8.043237073005276	3.504728809955924	-6.773135828601688	-645.3119809331413	-60.28983455098739	-22.89061174075547	-0.2740235239108949	0.445463576874	-0.7815697223116341	0.5595943748833687	0.2617723001099008	0.04327847212674338	1.114457947119131	0.4800742135199957	0.4800742135199962	-0.2269858292475341	0.01972291219767063	0.2838734531847594	0.3530376600141124	1.055776060165447e-07	9.817475562024654e-07	-3.830099458590959e-07	6.646962289288901e-08	3.009713167206621e-07	3.003180314291611e-07	1.5647035567524e-07
1.59	0.01599996524086105	0.0007079244522244505	0.8963854627060274	0.469774836404575	-0.3033308953816689	-0.2258827805885762	-0.7034346961681177	0.4920215084779507	0.4920215084779925	-0.1215192102839444	-0.1744302936683707	0.04673565373118312	0.007983472645216113	0.3900109277651135	0.3316291907970638	0.2886595410574004	-1.894366557174594	0.1193755704473359	-0.5480563845686887	0.9729002126937547	-1.647764884723288	-1.647764884723272	-0.1499361354464765	-0.0005941321898178301	-0.227261401603013	0.05470178186783651	-0.137828051875743	0.02879008641182084	-0.004498351636712576	-0.1683693510901138	0.1025610271487993	0.01584982594436318	0.2173192782009097	-8.996347910186996	-7.704453106529896	3.510879991233232	-6.294983740217042	-642.3900447666733	-60.48372468442913	-23.11600195908224	-0.3049869114773636	0.4056330740085317	-0.8062407985557188	0.702230667223251	0.2280875650220912	0.05797601845897248	0.9821986794483818	0.6037553388720897	0.6037553388622579	-0.2589110744687147	-0.01336495075079288	0.2875029743835714	0.3174305628757548	1.286167962552325e-07	1.006692159004394e-06	-4.716352482391699e-07	4.911819397329629e-08	3.634913601612228e-07	3.412846888518133e-07	1.691923872264254e-07
